<svg viewBox="0 0 400 150" xmlns="http://www.w3.org/2000/svg">
  <!-- M harfi (mavi tonları) -->
  <path d="M108 60 L108 120 L120 120 L120 85 L140 105 L160 85 L160 120 L172 120 L172 60 L160 60 L140 80 L120 60 Z" fill="#1c61ab"/>
  
  <!-- Ok simgesi (açık mavi) -->
  <path d="M145 30 L170 45 L155 45 L155 75 L145 75 L145 45 L130 45 Z" fill="#4a9eff"/>
  <path d="M165 40 L185 55 L175 55 L175 70 L165 70 L165 55 L155 55 Z" fill="#60b5ff"/>
  
  <!-- Yeşil çubuklar -->
  <rect x="180" y="80" width="15" height="40" fill="#8bb94a"/>
  <rect x="200" y="70" width="15" height="50" fill="#a4d65e"/>
  
  <!-- Optima yazısı -->
  <text x="220" y="85" font-family="Arial, sans-serif" font-size="32" font-weight="bold" fill="#1c61ab">Opt</text>
  <text x="290" y="85" font-family="Arial, sans-serif" font-size="32" font-weight="bold" fill="#8bb94a">ima</text>
</svg>